# xmcd
#
# Track frame offsets:
#	150
#	23043
#	47665
#	54545
#	80863
#	116190
#	138108
#	153420
#	175373
#	222415
#	245960
#	264898
#	289073
#
# Disc length: 4195
#
# Revision: 1
# Processed by: cddbd v1.5.1PL0 Copyright (c) Steve Scherf et al.
# Submitted via: CDex 1.50
# Normalized: r0:TDELIM( - )
#
DISCID=c110610d
DTITLE=Montreux Jazz Festival (misc) - Live in Montreux - Tribute to Nesuhi Ertegun
DYEAR=1900
DGENRE=Jazz
TTITLE0=The Modern Jazz Quartet and The Manhattan Transfer - The Golden Striker
TTITLE1=Simply Red - Sad Old Red
TTITLE2=Dianne Reeves - Introduction
TTITLE3=Dianne Reeves - For All We Know
TTITLE4=Miles Davies - Portia
TTITLE5=The Modern Jazz Quartet - Jack the Bear
TTITLE6=Wild Bill Davis - Johnny Comes Lately
TTITLE7=Carmen McRae and Dizzy Gillespie - The End Of A Beautiful  Friendship
TTITLE8=Stevie Ray Vaughan and Double Trouble - Flood Down In Texas
TTITLE9=Sugar Blue - Another Man Done Gone
TTITLE10=The Big Geraniums - Soldier Boots
TTITLE11=Sens Unik - L'Ile Au Trésor
TTITLE12=Silent Majority - Plot
EXTD=
EXTT0=
EXTT1=
EXTT2=
EXTT3=
EXTT4=
EXTT5=
EXTT6=
EXTT7=
EXTT8=
EXTT9=
EXTT10=
EXTT11=
EXTT12=
PLAYORDER=
